<?xml version="1.0" encoding="utf-8"?>
<!-- Generator: Adobe Illustrator 18.0.0, SVG Export Plug-In . SVG Version: 6.00 Build 0)  -->
<!DOCTYPE svg PUBLIC "-//W3C//DTD SVG 1.1//EN" "http://www.w3.org/Graphics/SVG/1.1/DTD/svg11.dtd">
<svg version="1.1" id="Layer_1" xmlns="http://www.w3.org/2000/svg" xmlns:xlink="http://www.w3.org/1999/xlink" x="0px" y="0px"
	 viewBox="0 0 64 64" enable-background="new 0 0 64 64" xml:space="preserve">
<g>
	<g>
		<g>
			<path fill="#50C9A4" d="M32,0c17.7,0,32,14.3,32,32S49.7,64,32,64S0,49.7,0,32S14.3,0,32,0z"/>
		</g>
	</g>
	<g>
		<g>
			<rect x="15.9" y="14.9" fill="#3A3A49" width="32.1" height="6"/>
		</g>
	</g>
	<g>
		<g>
			<polygon fill="#4A4A5E" points="45,14.9 19,14.9 20,9.9 44,9.9 			"/>
		</g>
	</g>
	<g>
		<g>
			<path fill="#DFD7D5" d="M46,20.9l-3.6,32.2c-0.1,1-1,1.8-2.1,1.8H23.7c-1,0-1.9-0.8-2.1-1.8L18,20.9H46z"/>
		</g>
	</g>
	<g>
		<g>
			<path fill="#8B7F7B" d="M43.9,42.9H20c-0.5,0-0.9-0.4-1-0.9l-1.2-11c-0.1-0.6,0.4-1.1,1-1.1H45c0.6,0,1,0.5,1,1.1l-1.2,11
				C44.8,42.5,44.4,42.9,43.9,42.9z"/>
		</g>
	</g>
	<g>
		<g>
			<circle fill="#FFFFFF" cx="32.5" cy="36.4" r="4.5"/>
		</g>
	</g>
	<g>
		<g>
			<rect x="15" y="18.9" fill="#3A3A49" width="34" height="2"/>
		</g>
	</g>
	<g>
		<g>
			<rect x="37" y="9" fill="#4A4A5E" width="4" height="1.5"/>
		</g>
	</g>
</g>
</svg>
